<?xml version="1.0" encoding="UTF-8"?>
<svg width="400" height="300" viewBox="0 0 400 300" fill="none" xmlns="http://www.w3.org/2000/svg">
  <rect width="400" height="300" rx="32" fill="#E7EAF6"/>
  <ellipse cx="200" cy="220" rx="120" ry="40" fill="#C7D2FE"/>
  <g>
    <ellipse cx="200" cy="140" rx="80" ry="80" fill="#fff"/>
    <ellipse cx="200" cy="140" rx="70" ry="70" fill="#F4F6FA"/>
    <path d="M170 140c0-16.57 13.43-30 30-30s30 13.43 30 30-13.43 30-30 30-30-13.43-30-30z" fill="#4F8CFF"/>
    <ellipse cx="190" cy="135" rx="6" ry="8" fill="#fff"/>
    <ellipse cx="210" cy="135" rx="6" ry="8" fill="#fff"/>
    <ellipse cx="200" cy="155" rx="10" ry="6" fill="#fff"/>
    <path d="M200 170c-8 0-15-4-15-9h30c0 5-7 9-15 9z" fill="#C7D2FE"/>
    <ellipse cx="200" cy="140" rx="30" ry="30" fill="#4F8CFF" fill-opacity="0.08"/>
  </g>
  <g>
    <rect x="120" y="200" width="160" height="20" rx="10" fill="#4F8CFF" fill-opacity="0.12"/>
    <rect x="140" y="210" width="120" height="10" rx="5" fill="#4F8CFF" fill-opacity="0.12"/>
  </g>
  <text x="200" y="270" text-anchor="middle" fill="#4F8CFF" font-size="18" font-family="Arial" font-weight="bold">Your Mind Matters</text>
</svg> 